<svg width="211" height="39" fill="none" xmlns="http://www.w3.org/2000/svg"><path d="M14.107.425c8.735 0 14.214 4.57 14.92 11.636h-7.108c-.434-3.347-3.255-5.685-7.704-5.685-4.557 0-6.782 2.285-6.782 4.729 0 2.922 2.007 4.622 8.464 5.26 9.712 1.01 13.944 4.463 13.944 11.105 0 6.376-5.155 11.53-14.378 11.53C6.728 39 .977 34.59 0 27.47h7.053c.651 3.507 3.852 5.632 8.41 5.632 4.774 0 7.27-2.444 7.27-5.26 0-3.188-1.736-4.782-8.518-5.526C4.395 21.306.38 17.906.38 11.211.38 5.42 5.37.425 14.106.425zM41.614 27.045c.434 3.932 3.527 6.43 7.433 6.43 3.201 0 5.643-1.382 6.674-3.508h7.053C61.309 35.387 55.774 39 49.1 39c-8.518 0-14.323-6.163-14.323-13.762 0-7.545 5.914-13.761 14.16-13.761 8.302 0 14.215 6.216 14.215 13.761 0 .638 0 1.329-.054 1.807H41.614zM56.1 22.688c-.542-3.294-3.418-5.632-7.162-5.632-3.58 0-6.456 2.178-7.107 5.632h14.27zM76.718 38.362L66.082 12.114h7l6.673 17.11c.162.478.271.956.325 1.328a7.77 7.77 0 01.326-1.328l6.673-17.11h7L83.444 38.362h-6.727zM103.845 27.045c.434 3.932 3.527 6.43 7.433 6.43 3.201 0 5.643-1.382 6.674-3.508h7.053C123.54 35.387 118.006 39 111.333 39c-8.519 0-14.324-6.163-14.324-13.762 0-7.545 5.914-13.761 14.161-13.761 8.301 0 14.215 6.216 14.215 13.761 0 .638 0 1.329-.055 1.807h-21.485zm14.486-4.357c-.542-3.294-3.418-5.632-7.161-5.632-3.581 0-6.457 2.178-7.108 5.632h14.269zM146.165 11.477c6.076 0 10.308 4.091 10.308 10.308v16.577h-6.782V22.794c0-3.453-2.062-5.526-5.154-5.526-3.907 0-6.294 3.082-6.294 8.502v12.592h-6.782V12.114h6.782v3.56c1.248-2.39 4.124-4.197 7.922-4.197zM179.423 17.906h-6.782V28.32c0 3.082 1.357 4.304 4.612 4.304.705 0 1.465 0 2.17-.053v5.685a67.52 67.52 0 01-3.526.106c-7.433 0-9.983-3.56-9.983-10.095v-10.36h-4.558v-5.793h4.558V5.207l6.727-.797v7.704h6.782v5.792zM200.691 11.477c6.077 0 10.309 4.091 10.309 10.308v16.577h-6.782V22.794c0-3.453-2.062-5.526-5.154-5.526-3.907 0-6.294 3.082-6.294 8.502v12.592h-6.782V0h6.782v15.674c1.248-2.39 4.124-4.197 7.921-4.197z" fill="#212322"/></svg>